<svg id="Layer_1" data-name="Layer 1" xmlns="http://www.w3.org/2000/svg" xmlns:xlink="http://www.w3.org/1999/xlink" viewBox="0 0 213.21 189.36"><defs><style>.cls-1{fill:none;}.cls-2{fill:#652d89;fill-rule:evenodd;}.cls-3{clip-path:url(#clip-path);}.cls-4{fill:#663089;}.cls-5{fill:#662f88;}</style><clipPath id="clip-path" transform="translate(-18.56 -11.16)"><rect class="cls-1" x="73.11" y="10.85" width="101.91" height="139.59"/></clipPath></defs><path class="cls-2" d="M137.58,182.48c1.72,0,4.54,0,5.61-1.24.92-1,.93-3.12.94-4.4V166.57A43.91,43.91,0,0,0,132.31,165a16.87,16.87,0,0,0-7,1.35,9.16,9.16,0,0,0-4.14,3.62,10.46,10.46,0,0,0-1.41,5.47v14.37a10.62,10.62,0,0,0,1.4,5.51,9.3,9.3,0,0,0,4.15,3.62,16.81,16.81,0,0,0,7,1.31c1.36,0,2.72,0,4.07-.15s2.59-.25,3.88-.42c1-.13,1.93-.27,2.88-.45h.05c-.11-1.4-.37-4.13-1.55-5-1-.77-3-.62-4.14-.54l-3.18.26c-.68,0-1.34.07-2,.07a6.94,6.94,0,0,1-3.34-.72,3.83,3.83,0,0,1-1.77-2,7,7,0,0,1-.43-2.69V176.81a7.27,7.27,0,0,1,.43-2.73,4.18,4.18,0,0,1,1.74-2.08,6.46,6.46,0,0,1,3.37-.77c.5,0,1,0,1.51,0s1,0,1.51.09,1.21.12,1.81.2l.44.05Zm-119,6.57v9.88a44.94,44.94,0,0,0,5.65,1.17,44.19,44.19,0,0,0,6.19.42,16.87,16.87,0,0,0,7.05-1.35,9.19,9.19,0,0,0,4.13-3.62A10.53,10.53,0,0,0,43,190.09v-1.8c0-2.47-.3-5.61-1.72-7.71-1.73-2.55-4.82-3.3-7.73-3.41l-.49,0v-2.68h8.6c0-1.53-.06-4-1.09-5s-2.81-.83-3.94-.84H33v-3.39H26v3.39H19.83c0,1.53.06,4,1.1,5s2.8.83,3.93.84H26v7.91h4.25c1.52,0,3.34.25,4.43,1.42s1.28,3,1.28,4.49v.41a7.54,7.54,0,0,1-.46,2.71,4.05,4.05,0,0,1-1.75,2.12,6.55,6.55,0,0,1-3.34.77,23,23,0,0,1-5.28-.45l0-.36a9.07,9.07,0,0,0-.27-2,2.94,2.94,0,0,0-.64-1.24c-1.08-1.19-3.91-1.25-5.63-1.25m28.56-14.42c.77,4.86,1.19,6.68,6.85,5.83,2.08-.31,4.24-1,6.22.11A3.63,3.63,0,0,1,62,182.51a8.15,8.15,0,0,1,.46,2.85v3.15a8.06,8.06,0,0,1-.46,2.84,3.6,3.6,0,0,1-1.75,1.93,6.87,6.87,0,0,1-3.29.67c-1.95,0-3.77-.65-5.67-.66a7.77,7.77,0,0,0-1.86.23,2.82,2.82,0,0,0-1.23.59c-1.06,1-1.1,3.56-1.1,5.09,1.56.32,3.13.58,4.71.76a46.63,46.63,0,0,0,5.15.27,17,17,0,0,0,7.16-1.35,8.91,8.91,0,0,0,4.05-3.6,11,11,0,0,0,1.31-5.49v-5.72a11,11,0,0,0-1.31-5.49,8.85,8.85,0,0,0-4.05-3.6,16.85,16.85,0,0,0-7.16-1.35,46.63,46.63,0,0,0-5.15.27c-1.4.16-2.8.39-4.21.66Zm68.66,25.6V184.08a10.57,10.57,0,0,0-1.39-5.47,9.27,9.27,0,0,0-4.15-3.63,16.66,16.66,0,0,0-7-1.35,35,35,0,0,0-8,.89,54.61,54.61,0,0,0-9.12-.89A16.72,16.72,0,0,0,79,175a9.3,9.3,0,0,0-4.14,3.63,10.57,10.57,0,0,0-1.4,5.47v16.15c1.84,0,4.88-.06,6-1.33,1-1.09,1-3.35,1-4.72v-8.7a7.78,7.78,0,0,1,.45-2.75,4.06,4.06,0,0,1,1.73-2.08,6.4,6.4,0,0,1,3.36-.77,42.76,42.76,0,0,1,5.3.36v11.35c1.71,0,4.54-.06,5.61-1.24a5.59,5.59,0,0,0,.91-3.37c.11-2.21,0-4.51,0-6.74a42.63,42.63,0,0,1,5.3-.36,6.45,6.45,0,0,1,3.36.77,4.11,4.11,0,0,1,1.73,2.08,7.78,7.78,0,0,1,.45,2.75v8.7c0,1.37,0,3.63,1,4.72,1.16,1.27,4.2,1.33,6,1.33M148.05,190v8.85a41.72,41.72,0,0,0,5.29,1.09,33.36,33.36,0,0,0,10.22,0,10.62,10.62,0,0,0,3.38-1.13,5.79,5.79,0,0,0,2-1.82c2-3,1.32-7.22,1.32-10.66,0-1.12,0-2.28-.1-3.39a7.32,7.32,0,0,0-.59-2.35,4.39,4.39,0,0,0-1.37-1.68,10.13,10.13,0,0,0-2.65-1.38,37.89,37.89,0,0,0-4.43-1.26c-1-.25-2.09-.5-3.11-.8a5.44,5.44,0,0,1-1.81-.84,2.18,2.18,0,0,1-.66-.9h-6.73a9.4,9.4,0,0,0,.8,3.46,4.82,4.82,0,0,0,1.44,1.67,10.09,10.09,0,0,0,2.57,1.27,32.71,32.71,0,0,0,4,1.06c1.08.22,2.2.47,3.26.8a5.58,5.58,0,0,1,1.86.92,2.46,2.46,0,0,1,.81,1.45,11.13,11.13,0,0,1,.11,1.91c0,2.06.47,6.24-1,7.77a3,3,0,0,1-1.68.71,23.76,23.76,0,0,1-6.84-.16c-.06-1.1-.11-2.6-.87-3.45-1-1.1-3.65-1.16-5.27-1.16M184,165.13h-6.81c.07,2.23.78,4.25,2.92,5.28a12.59,12.59,0,0,0,2.32.76,3.46,3.46,0,0,1,1.78.83,8.58,8.58,0,0,1,.75,4l-.45.06a15.41,15.41,0,0,0-3,.71,11.15,11.15,0,0,0-4.12,2.39,9.2,9.2,0,0,0-2.27,3.31,10.43,10.43,0,0,0-.71,3.82v3.65a10.36,10.36,0,0,0,.71,3.82,9.15,9.15,0,0,0,2.27,3.32,11.37,11.37,0,0,0,4.12,2.39,22.19,22.19,0,0,0,12.51,0,11.21,11.21,0,0,0,4.08-2.39,9.33,9.33,0,0,0,2.29-3.32,10.59,10.59,0,0,0,.69-3.82v-3.65a10.63,10.63,0,0,0-.69-3.82,9.42,9.42,0,0,0-2.29-3.32,11.19,11.19,0,0,0-4.08-2.38c-.51-.18-1-.31-1.52-.45a21.43,21.43,0,0,0-.38-5.51,2.4,2.4,0,0,0-1.47-1.53,16.75,16.75,0,0,0-2.62-.66,7.15,7.15,0,0,1-2.74-1,3.19,3.19,0,0,1-.92-1.11,4,4,0,0,1-.37-1.36M194,189.24a4.59,4.59,0,0,1-1.57,3.69c-2.1,1.77-7.39,1.78-9.48,0a4.62,4.62,0,0,1-1.55-3.69V187A4.64,4.64,0,0,1,183,183.3c2.13-1.8,7.34-1.8,9.48,0A4.61,4.61,0,0,1,194,187Zm11.07,11c1.83,0,4.88-.05,6-1.33,1-1.09,1-3.34,1-4.72,0-3.14,0-6.27,0-9.41a4.61,4.61,0,0,1,1.57-3.69,7.37,7.37,0,0,1,4.73-1.31,7.46,7.46,0,0,1,4.73,1.31,4.61,4.61,0,0,1,1.57,3.69v9.41c0,1.37,0,3.64,1,4.72,1.16,1.28,4.2,1.33,6,1.33V184.07a10.37,10.37,0,0,0-.72-3.82,9.25,9.25,0,0,0-2.26-3.33,11.45,11.45,0,0,0-4.11-2.38,22,22,0,0,0-12.51,0,11.37,11.37,0,0,0-4.09,2.38,9.3,9.3,0,0,0-2.28,3.33,10.56,10.56,0,0,0-.7,3.82Z" transform="translate(-18.56 -11.16)"/><g class="cls-3"><path class="cls-4" d="M124.13,104.31l1.7-1.71a5.42,5.42,0,0,1,1.4-5.46,6.38,6.38,0,0,1,6.14-1.23l-3.89,3.78,2.92,3,3.88-3.77a5.48,5.48,0,0,1,.22,2.54,5.31,5.31,0,0,1-1.63,3.55,5.39,5.39,0,0,1-5.5,1.25L127.58,108l-5.43,5.43-2,2a4.4,4.4,0,1,1-3.67-3.51l2.18-2.17Z" transform="translate(-18.56 -11.16)"/><path class="cls-4" d="M118.7,109.74l-6-6.47a.75.75,0,0,1-.23-.37l-1.59-6.28a.75.75,0,0,1,.2-.74h0a.75.75,0,0,1,.75-.15L118,97.78a.72.72,0,0,1,.35.27l5.8,6.26,3.46,3.72,6.15,6.63a2,2,0,0,1-.05,2.77l-2.81,2.6a2,2,0,0,1-2.77-.15l-6-6.42Z" transform="translate(-18.56 -11.16)"/><path class="cls-4" d="M144.16,100.78a1.64,1.64,0,1,1,1.63-1.63,1.64,1.64,0,0,1-1.63,1.63" transform="translate(-18.56 -11.16)"/><path class="cls-4" d="M139.75,92.72a1.64,1.64,0,1,1,1.63-1.64,1.63,1.63,0,0,1-1.63,1.64" transform="translate(-18.56 -11.16)"/><path class="cls-4" d="M108.51,92.07a1.64,1.64,0,1,1,1.64-1.64,1.63,1.63,0,0,1-1.64,1.64" transform="translate(-18.56 -11.16)"/><path class="cls-4" d="M103.22,96.7a1.64,1.64,0,1,1-1.64,1.64,1.63,1.63,0,0,1,1.64-1.64" transform="translate(-18.56 -11.16)"/><path class="cls-4" d="M104.57,110.71a2.61,2.61,0,0,1-.79,0l-.57.93-.85-.33.23-1.07a2.48,2.48,0,0,1-.57-.55L101,110l-.36-.83.92-.6a2.61,2.61,0,0,1,0-.79l-.93-.55.33-.85,1.08.22a2.66,2.66,0,0,1,.54-.57l-.27-1.06.84-.36.61.92a2.55,2.55,0,0,1,.78,0l.57-.94.85.33-.23,1.08a2.71,2.71,0,0,1,.57.55l1.06-.28.37.84-.92.61a2.91,2.91,0,0,1,0,.78l.93.58-.33.85-1.08-.23a2.44,2.44,0,0,1-.54.57l.25,1.06-.84.36Z" transform="translate(-18.56 -11.16)"/><path class="cls-4" d="M106.88,120.07a1.64,1.64,0,1,1,1.63-1.64,1.63,1.63,0,0,1-1.63,1.64" transform="translate(-18.56 -11.16)"/><path class="cls-4" d="M112.67,127.5a1.64,1.64,0,1,1,1.63-1.64,1.63,1.63,0,0,1-1.63,1.64" transform="translate(-18.56 -11.16)"/><path class="cls-4" d="M96.86,48.91a4.83,4.83,0,0,1,.74-3.38l-3.66-3.67a9.93,9.93,0,0,0,0,12.59l3.65-3.65a4.88,4.88,0,0,1-.73-1.89" transform="translate(-18.56 -11.16)"/><path class="cls-4" d="M108,55.87l-3.67-3.66a4.75,4.75,0,0,1-1.87.73,5.09,5.09,0,0,1-.77.06A4.82,4.82,0,0,1,99,52.21l-3.65,3.66a9.94,9.94,0,0,0,12.6,0" transform="translate(-18.56 -11.16)"/><path class="cls-4" d="M145.71,38.19a10,10,0,0,0-7.58,3.51h15.15a10,10,0,0,0-7.57-3.51" transform="translate(-18.56 -11.16)"/><path class="cls-4" d="M100.89,43.37a4.77,4.77,0,0,1,3.4.73L108,40.44a9.94,9.94,0,0,0-12.6,0L99,44.1a4.77,4.77,0,0,1,1.88-.73" transform="translate(-18.56 -11.16)"/><path class="cls-4" d="M106.43,47.4a4.78,4.78,0,0,1-.74,3.39l3.67,3.66a9.93,9.93,0,0,0,0-12.59l-3.66,3.65a4.88,4.88,0,0,1,.73,1.89" transform="translate(-18.56 -11.16)"/><path class="cls-4" d="M101.65,45.31a3.4,3.4,0,0,0-.45,0A2.85,2.85,0,1,0,104,49.82a2.79,2.79,0,0,0,.51-2.11,2.87,2.87,0,0,0-2.81-2.4" transform="translate(-18.56 -11.16)"/><path class="cls-4" d="M136.81,43.69a9.75,9.75,0,0,0-1,3.47h19.83a10.18,10.18,0,0,0-1-3.47Z" transform="translate(-18.56 -11.16)"/><path class="cls-4" d="M145.71,58.12a9.91,9.91,0,0,0,7.56-3.5H138.13a9.94,9.94,0,0,0,7.58,3.5" transform="translate(-18.56 -11.16)"/><path class="cls-5" d="M156.16,124.74l1.05-1.2a11.33,11.33,0,0,1-1.1,1Z" transform="translate(-18.56 -11.16)"/><path class="cls-5" d="M157.28,123.45c.31-.36.62-.72.92-1.09h0a9.56,9.56,0,0,1-.91,1.09" transform="translate(-18.56 -11.16)"/><path class="cls-4" d="M136.81,52.62H154.6a10.11,10.11,0,0,0,1-3.47H135.79a9.9,9.9,0,0,0,1,3.47" transform="translate(-18.56 -11.16)"/><path class="cls-4" d="M148.09,106.23l-1.23-1.89a12.27,12.27,0,0,0-3.93,1.72l.56,2.18a10.51,10.51,0,0,0-2.09,2.17l-2.2-.47a12.34,12.34,0,0,0-1.56,4l1.94,1.14a10.1,10.1,0,0,0,.06,3l-1.89,1.23a12.34,12.34,0,0,0,1.72,3.92l2.19-.55a11.59,11.59,0,0,0,1.57,1.62c.94-1.41,1.83-2.85,2.64-4.33a5.31,5.31,0,0,1,3.71-8.91,29.8,29.8,0,0,0,.92-4.92,18.2,18.2,0,0,0-2.41.08" transform="translate(-18.56 -11.16)"/><path class="cls-5" d="M114.87,137.24a.34.34,0,0,0,.08-.09h0l-.07.09" transform="translate(-18.56 -11.16)"/><path class="cls-5" d="M117.2,135c-.06.05-.79.59,0,0l0,0Z" transform="translate(-18.56 -11.16)"/><path class="cls-5" d="M114.93,137.14h0c.13-.18.34-.49,0,0" transform="translate(-18.56 -11.16)"/><path class="cls-4" d="M130.41,135.14s.77.54,0,0l1.07-4.5-3.53-1.49L125.44,133a10.85,10.85,0,0,0-3.27,0L119.73,129l-3.54,1.43,1,4.49h0l0,0a11.25,11.25,0,0,0-2.2,2.16l3.3,3a6.62,6.62,0,0,1,10.86,0l3.3-3a12.27,12.27,0,0,0-2-2" transform="translate(-18.56 -11.16)"/><path class="cls-5" d="M134.64,142.47Z" transform="translate(-18.56 -11.16)"/><path class="cls-4" d="M165.82,60.24a23.23,23.23,0,0,0,3.31-12c0-.06,0-.11,0-.17C169.15,24.9,174,12,174,12H172.9a66.71,66.71,0,0,0-28,6,36.33,36.33,0,0,0-42.49,0,66.56,66.56,0,0,0-28-6H73.32S78.2,24.9,78.23,48.12c0,.06,0,.11,0,.17a23.33,23.33,0,0,0,3.31,12c-20.65,26.23-.71,61.84,31.13,83q2.39,1.59,4.86,3.06c2,1.2,4.07,2.35,6.16,3.43h0c2.1-1.09,4.16-2.26,6.19-3.47,1.63-1,3.24-2,4.81-3a112.76,112.76,0,0,0,18-14.81q1.78-1.81,3.44-3.67l0-.22a11.33,11.33,0,0,0,1.1-1l.07-.09a9.56,9.56,0,0,0,.91-1.09h0q1.62-1.94,3.09-3.92c14-18.83,18.37-40.62,4.53-58.2M123.66,14a33.33,33.33,0,0,1,18.42,5.51c-.46.25-1,.49-1.4.76-8,4.78-14.33,11.66-17,19.9-2.7-8.24-9.05-15.12-17-19.9-.42-.26-.9-.49-1.34-.73A33.44,33.44,0,0,1,123.66,14m5.61,67.72a6.9,6.9,0,0,1-3.1,2.55v0a6.48,6.48,0,0,1-5,0v0a6.89,6.89,0,0,1-3.75-3.75h0v0a29.69,29.69,0,0,1,12.45,0h0v0h0a6.74,6.74,0,0,1-.66,1.21c.1-.15-.08.13,0,0m-2.09-9.42a28.49,28.49,0,0,1-3.51,3.2,29.25,29.25,0,0,1-3.5-3.19c-1.91-2-3.89-4.82-3.89-7.53l1.07-1.29,6.33-7.66L130,63.47l1.07,1.28c0,2.71-2,5.48-3.9,7.52M94.65,65.8,93,65.08a1.1,1.1,0,0,1-.56-1.44l.72-1.59a1.07,1.07,0,0,1,.31-.39,16.12,16.12,0,0,1-2.75-2,.94.94,0,0,1-.29.4L89.1,61.13A1.12,1.12,0,0,1,87.55,61l-1.16-1.36a1.09,1.09,0,0,1,.14-1.54L87.87,57a1.16,1.16,0,0,1,.45-.21,16.13,16.13,0,0,1-1.57-3,1.1,1.1,0,0,1-.43.22l-1.71.42a1.1,1.1,0,0,1-1.33-.79l-.43-1.73a1.09,1.09,0,0,1,.8-1.32l1.7-.42a1.16,1.16,0,0,1,.49,0,15.44,15.44,0,0,1-.08-3.4,1.06,1.06,0,0,1-.47,0l-1.71-.37a1.1,1.1,0,0,1-.85-1.29l.37-1.74a1.11,1.11,0,0,1,1.31-.84l1.72.36a1,1,0,0,1,.4.18,15.27,15.27,0,0,1,1.3-2.86L88,40a1,1,0,0,1-.38-.19l-1.38-1.07A1.09,1.09,0,0,1,86,37.19l1.11-1.4a1.12,1.12,0,0,1,1.54-.19L90,36.67a1.18,1.18,0,0,1,.27.32,15.63,15.63,0,0,1,2.63-2.13,1.22,1.22,0,0,1-.24-.32L91.91,33a1.09,1.09,0,0,1,.52-1.46L94,30.74a1.12,1.12,0,0,1,1.47.5l.76,1.57a.93.93,0,0,1,.1.37,15.61,15.61,0,0,1,3.31-.77,1.11,1.11,0,0,1-.07-.37V30.31a1.11,1.11,0,0,1,1.1-1.1h1.79a1.1,1.1,0,0,1,1.1,1.1V32a1,1,0,0,1-.07.34,15.83,15.83,0,0,1,2.24.44,1,1,0,0,1,.07-.34l.66-1.62a1.11,1.11,0,0,1,1.43-.6l1.67.67a1.08,1.08,0,0,1,.6,1.41L109.54,34a1.12,1.12,0,0,1-.19.29l.28.14a15.3,15.3,0,0,1,2.51,1.78,1.09,1.09,0,0,1,.21-.27l1.3-1.16a1.1,1.1,0,0,1,1.55.08l1.21,1.32a1.09,1.09,0,0,1-.09,1.54L115,38.84a1.39,1.39,0,0,1-.31.18A15,15,0,0,1,116.35,42a1,1,0,0,1,.32-.16l1.69-.49a1.12,1.12,0,0,1,1.36.75l.5,1.71a1.1,1.1,0,0,1-.76,1.35l-1.68.48a1.58,1.58,0,0,1-.37,0,15.09,15.09,0,0,1,.16,3.36,1.27,1.27,0,0,1,.39,0l1.72.3a1.1,1.1,0,0,1,.89,1.27l-.3,1.75a1.11,1.11,0,0,1-1.28.88l-1.73-.3a1.28,1.28,0,0,1-.37-.14,15.21,15.21,0,0,1-1.34,3.09,1.08,1.08,0,0,1,.38.17l1.41,1a1.08,1.08,0,0,1,.25,1.52L116.53,60a1.1,1.1,0,0,1-1.53.24l-1.42-1a1.06,1.06,0,0,1-.29-.31,16.18,16.18,0,0,1-2.58,2.19,1.26,1.26,0,0,1,.29.35l.82,1.53a1.08,1.08,0,0,1-.46,1.47l-1.58.84a1.11,1.11,0,0,1-1.48-.45l-.83-1.54a1.16,1.16,0,0,1-.12-.43,16.45,16.45,0,0,1-3.31.86,1,1,0,0,1,.12.45l.07,1.74A1.1,1.1,0,0,1,103.17,67l-1.79.07A1.1,1.1,0,0,1,100.24,66l-.07-1.74a1.2,1.2,0,0,1,.11-.46,15.82,15.82,0,0,1-3.37-.66,1.14,1.14,0,0,1-.09.48l-.71,1.59a1.12,1.12,0,0,1-1.46.55m40,76.67h0m15.86-36.32a29.8,29.8,0,0,1-.92,4.92,41,41,0,0,1-3.71,8.91c-.81,1.48-1.7,2.92-2.64,4.33a85.43,85.43,0,0,1-10.48,12.53l-.34.31-3.3,3,0,0c-3.15,2.86-5.36,4.53-5.41,4.57h0c-.06,0-2.27-1.71-5.42-4.57h0l-3.3-3a.34.34,0,0,1-.08.09l.07-.09h0l-.33-.3c-7.82-7.82-17.87-20.36-17.87-33.15,0-7.56,4.61-15.34,12.21-19.88a16.28,16.28,0,0,0,1.42,2.79h0l2.79-.67a13.24,13.24,0,0,0,2.74,2.7l-.63,2.81h0c.14.09.3.16.44.25s.53.31.81.45l.19.09c.37.18.74.35,1.12.5h0a15.12,15.12,0,0,0,2.51.77l1.51-2.45a13.34,13.34,0,0,0,3.84,0l1.54,2.43a16.15,16.15,0,0,0,5.06-2.13h0l-.68-2.8a13,13,0,0,0,2.7-2.73l2.81.63h0c.09-.14.16-.29.25-.43s.31-.54.45-.82a1.63,1.63,0,0,0,.09-.19c.18-.37.35-.74.5-1.12h0v0c7.59,4.54,12.2,12.31,12.2,19.87,0,.82,0,1.64-.13,2.46m13.82-53.84a1.11,1.11,0,0,1-1.28.88l-1.72-.3a1.11,1.11,0,0,1-.37-.15,15.62,15.62,0,0,1-1.34,3.1A1,1,0,0,1,160,56l1.42,1a1.08,1.08,0,0,1,.24,1.52l-1,1.44a1.11,1.11,0,0,1-1.54.24l-1.42-1a1.41,1.41,0,0,1-.29-.31,15.34,15.34,0,0,1-2.58,2.19,1,1,0,0,1,.29.35l.83,1.53a1.09,1.09,0,0,1-.46,1.47l-1.58.84a1.12,1.12,0,0,1-1.49-.45l-.82-1.54a.88.88,0,0,1-.12-.43,15.78,15.78,0,0,1-3.31.85,1.16,1.16,0,0,1,.12.46l.06,1.74A1.09,1.09,0,0,1,147.22,67l-1.79.07A1.12,1.12,0,0,1,144.29,66l-.06-1.74a1,1,0,0,1,.11-.47,15.18,15.18,0,0,1-3.38-.65,1,1,0,0,1-.08.48l-.72,1.59a1.12,1.12,0,0,1-1.45.55l-1.65-.72a1.1,1.1,0,0,1-.55-1.44l.72-1.59a1.16,1.16,0,0,1,.3-.39,15.66,15.66,0,0,1-2.74-2,1.14,1.14,0,0,1-.29.4l-1.35,1.12A1.12,1.12,0,0,1,131.6,61l-1.16-1.36a1.1,1.1,0,0,1,.14-1.54L131.93,57a1,1,0,0,1,.45-.21,16.18,16.18,0,0,1-1.58-3,1,1,0,0,1-.43.22l-1.7.42a1.09,1.09,0,0,1-1.33-.8l-.44-1.72a1.1,1.1,0,0,1,.81-1.32l1.7-.42a1.11,1.11,0,0,1,.48,0,16.08,16.08,0,0,1-.07-3.4.94.94,0,0,1-.47,0l-1.72-.36a1.08,1.08,0,0,1-.84-1.29l.37-1.74a1.1,1.1,0,0,1,1.3-.84l1.72.36a1.1,1.1,0,0,1,.4.17,15.48,15.48,0,0,1,1.3-2.85L132,40a1.18,1.18,0,0,1-.39-.19l-1.38-1.07a1.09,1.09,0,0,1-.19-1.53l1.11-1.4a1.11,1.11,0,0,1,1.54-.19l1.39,1.07a1.18,1.18,0,0,1,.27.32A14.93,14.93,0,0,1,137,34.85a1.07,1.07,0,0,1-.25-.31L136,33a1.1,1.1,0,0,1,.51-1.46l1.61-.78a1.1,1.1,0,0,1,1.47.5l.77,1.56a1,1,0,0,1,.1.37,16.23,16.23,0,0,1,3.31-.76,1.11,1.11,0,0,1-.08-.37V30.31a1.1,1.1,0,0,1,1.1-1.1h1.8a1.1,1.1,0,0,1,1.1,1.1V32a1.28,1.28,0,0,1-.07.34,15.83,15.83,0,0,1,2.24.44,1.09,1.09,0,0,1,.07-.35l.65-1.61a1.13,1.13,0,0,1,1.44-.6l1.66.67a1.09,1.09,0,0,1,.61,1.41L153.6,34a1.45,1.45,0,0,1-.19.29l.28.14a16.21,16.21,0,0,1,2.51,1.78.86.86,0,0,1,.2-.27l1.3-1.16a1.1,1.1,0,0,1,1.55.08l1.21,1.32a1.1,1.1,0,0,1-.08,1.54l-1.31,1.16a1.33,1.33,0,0,1-.3.18A16.07,16.07,0,0,1,160.41,42a1,1,0,0,1,.32-.16l1.69-.49a1.12,1.12,0,0,1,1.36.75l.49,1.71a1.09,1.09,0,0,1-.75,1.35l-1.69.48a1.46,1.46,0,0,1-.36,0,15.69,15.69,0,0,1,.16,3.36,1.2,1.2,0,0,1,.38,0l1.73.3a1.1,1.1,0,0,1,.89,1.27Z" transform="translate(-18.56 -11.16)"/></g></svg>